<svg xmlns="http://www.w3.org/2000/svg" viewBox="0 0 32 32" role="img" aria-label="WhatsApp">
  <defs>
    <linearGradient id="waGradient" x1="50%" y1="0%" x2="50%" y2="100%">
      <stop offset="0%" stop-color="#25D366"/>
      <stop offset="100%" stop-color="#20BD5A"/>
    </linearGradient>
  </defs>
  <g fill="none" fill-rule="evenodd">
    <circle cx="16" cy="16" r="16" fill="url(#waGradient)"/>
    <path fill="#FFF" d="M23.6 18.7c-.2.6-1 1.3-1.6 1.5-.4.2-1 .3-1.8.2-.4 0-1-.2-1.7-.4-3-.9-4.9-3.4-5.1-3.7-.2-.2-1.2-1.6-1.2-3s.7-2 1-2.3c.2-.3.6-.3.8-.3h.6c.2 0 .4 0 .5.4.2.5.6 1.7.7 1.9.1.2.1.3 0 .5l-.4.7c-.1.2-.2.3-.1.5.2.3.7 1.3 1.7 2 .8.5 1.5.7 1.8.8.2.1.4.1.6-.1l.9-1.1c.1-.2.3-.2.5-.2s1.2.4 1.7.6c.5.2.8.4.8.6 0 .2 0 .8-.2 1.4Z"/>
  </g>
</svg>


